<?xml version="1.0" encoding="utf-8"?>
<!-- Generator: Adobe Illustrator 16.0.0, SVG Export Plug-In . SVG Version: 6.00 Build 0)  -->
<!DOCTYPE svg PUBLIC "-//W3C//DTD SVG 1.1//EN" "http://www.w3.org/Graphics/SVG/1.1/DTD/svg11.dtd">
<svg version="1.1" id="Layer_1" xmlns="http://www.w3.org/2000/svg" xmlns:xlink="http://www.w3.org/1999/xlink" x="0px" y="0px"
	 width="28.348px" height="28.348px" viewBox="0 0 28.348 28.348" enable-background="new 0 0 28.348 28.348" xml:space="preserve">
<path fill="#FFFFFF" d="M25.512,0H2.834C1.275,0,0,1.275,0,2.834v22.678c0,1.56,1.274,2.835,2.834,2.835h22.678
	c1.56,0,2.835-1.275,2.835-2.835V2.834C28.347,1.275,27.071,0,25.512,0z M8.974,24.652H4.615V10.655h4.359V24.652z M6.796,8.742
	c-1.395,0-2.524-1.132-2.524-2.525c0-1.39,1.129-2.521,2.524-2.521c1.393,0,2.522,1.132,2.522,2.521
	C9.318,7.611,8.188,8.742,6.796,8.742z M25.272,24.652h-4.349v-6.805c0-1.626-0.03-3.713-2.26-3.713c-2.265,0-2.61,1.765-2.61,3.592
	v6.926h-4.349V10.655h4.174v1.912h0.058c0.582-1.101,2.001-2.26,4.12-2.26c4.404,0,5.218,2.899,5.218,6.668L25.272,24.652
	L25.272,24.652z"/>
</svg>
