<?xml version="1.0" encoding="utf-8"?>
<!-- Generator: Adobe Illustrator 16.0.0, SVG Export Plug-In . SVG Version: 6.00 Build 0)  -->
<!DOCTYPE svg PUBLIC "-//W3C//DTD SVG 1.1//EN" "http://www.w3.org/Graphics/SVG/1.1/DTD/svg11.dtd">
<svg version="1.1" id="Layer_1" xmlns="http://www.w3.org/2000/svg" xmlns:xlink="http://www.w3.org/1999/xlink" x="0px" y="0px"
	 width="28.348px" height="28.348px" viewBox="0 0 28.348 28.348" enable-background="new 0 0 28.348 28.348" xml:space="preserve">
<path fill="#FFFFFF" d="M25.513-0.001H2.834C1.275-0.001,0,1.274,0,2.833v22.681c0,1.561,1.274,2.835,2.834,2.835h22.679
	c1.56,0,2.835-1.274,2.835-2.835V2.833C28.348,1.274,27.072-0.001,25.513-0.001z M19.911,6.911c-0.115,0-0.2,0-0.283,0
	c-0.683,0-1.361-0.016-2.042,0.008c-0.935,0.033-1.629,0.388-1.659,1.557c-0.024,0.851-0.031,2.812-0.031,2.812
	s2.194,0.003,3.148-0.001c0.243,0,0.487,0,0.754,0c-0.175,1.355-0.342,2.66-0.514,3.976l-3.36,0.001l0.005,9.934l-4.12,0.002
	l-0.004-9.947l-3.371,0.001l-0.001-3.957l3.391-0.001l0-0.298c0-0.797-0.017-1.589,0.002-2.387c0.013-0.508,0.035-1.022,0.123-1.522
	c0.211-1.207,0.767-2.23,1.777-2.959c0.882-0.631,1.892-0.893,2.962-0.917c0.698-0.016,1.4,0.019,2.099,0.049
	c0.382,0.02,0.761,0.07,1.125,0.107L19.911,6.911L19.911,6.911z"/>
</svg>
