<?xml version="1.0" encoding="utf-8"?>
<!-- Generator: Adobe Illustrator 16.0.0, SVG Export Plug-In . SVG Version: 6.00 Build 0)  -->
<!DOCTYPE svg PUBLIC "-//W3C//DTD SVG 1.1//EN" "http://www.w3.org/Graphics/SVG/1.1/DTD/svg11.dtd">
<svg version="1.1" id="Layer_1" xmlns="http://www.w3.org/2000/svg" xmlns:xlink="http://www.w3.org/1999/xlink" x="0px" y="0px"
	 width="28.348px" height="28.348px" viewBox="0 0 28.348 28.348" enable-background="new 0 0 28.348 28.348" xml:space="preserve">
<g>
	<path fill="#FFFFFF" d="M20.751,14.044c0,3.636-2.943,6.577-6.579,6.577c-3.634,0-6.577-2.941-6.577-6.577
		c0-0.539,0.063-1.063,0.186-1.563H5.644v9.002c0,0.603,0.488,1.091,1.092,1.091h14.875c0.603,0,1.091-0.488,1.091-1.091v-9.002
		h-2.137C20.688,12.982,20.751,13.507,20.751,14.044z"/>
	<path fill="#FFFFFF" d="M19.41,9.552h2.612c0.334,0,0.604-0.269,0.604-0.603V6.336c0-0.331-0.271-0.602-0.604-0.602H19.41
		c-0.335,0-0.605,0.271-0.605,0.602v2.612C18.806,9.282,19.076,9.552,19.41,9.552z"/>
	<path fill="#FFFFFF" d="M14.173,18.327c2.365,0,4.287-1.92,4.287-4.285c0-0.55-0.104-1.079-0.295-1.563
		c-0.624-1.592-2.176-2.724-3.99-2.724c-1.813,0-3.365,1.128-3.989,2.724c-0.19,0.482-0.294,1.011-0.294,1.563
		C9.886,16.407,11.81,18.327,14.173,18.327z"/>
	<path fill="#FFFFFF" d="M25.512,0H2.834C1.275,0,0,1.275,0,2.834v22.68c0,1.561,1.274,2.835,2.834,2.835h22.678
		c1.56,0,2.835-1.274,2.835-2.835V2.834C28.347,1.275,27.071,0,25.512,0z M24.996,21.613L24.996,21.613
		c-0.002,1.867-1.516,3.383-3.386,3.383H6.736c-1.869,0-3.384-1.516-3.384-3.383V6.738c0-1.869,1.516-3.386,3.384-3.386h14.875
		c1.869,0,3.386,1.515,3.386,3.386V21.613z"/>
</g>
</svg>
